<mxfile host="app.diagrams.net" modified="2022-11-23T14:51:36.725Z" agent="5.0 (X11; Linux x86_64) AppleWebKit/537.36 (KHTML, like Gecko) Chrome/107.0.0.0 Safari/537.36" etag="So3J_exkd_Abu5sE5LR7" version="20.6.0" type="github">
  <diagram id="XAEiMc0YGGv5q-YpqtA7" name="Page-1">
    <mxGraphModel dx="2200" dy="744" grid="1" gridSize="10" guides="1" tooltips="1" connect="1" arrows="1" fold="1" page="1" pageScale="1" pageWidth="850" pageHeight="1100" math="0" shadow="0">
      <root>
        <mxCell id="0" />
        <mxCell id="1" parent="0" />
        <mxCell id="JI6OyYHyW7x6FhiPOG5J-25" style="edgeStyle=orthogonalEdgeStyle;rounded=0;orthogonalLoop=1;jettySize=auto;html=1;entryX=0.5;entryY=1;entryDx=0;entryDy=0;strokeWidth=4;fontSize=20;endArrow=block;endFill=1;" parent="1" source="JI6OyYHyW7x6FhiPOG5J-1" target="JI6OyYHyW7x6FhiPOG5J-12" edge="1">
          <mxGeometry relative="1" as="geometry" />
        </mxCell>
        <mxCell id="JI6OyYHyW7x6FhiPOG5J-1" value="&lt;b&gt;Eu&lt;/b&gt;" style="text;html=1;strokeColor=none;fillColor=none;align=center;verticalAlign=middle;whiteSpace=wrap;rounded=0;fontSize=24;" parent="1" vertex="1">
          <mxGeometry x="-480" y="446" width="60" height="30" as="geometry" />
        </mxCell>
        <mxCell id="JI6OyYHyW7x6FhiPOG5J-26" style="edgeStyle=orthogonalEdgeStyle;rounded=0;orthogonalLoop=1;jettySize=auto;html=1;entryX=0.5;entryY=1;entryDx=0;entryDy=0;strokeWidth=4;fontSize=20;endArrow=block;endFill=1;" parent="1" source="JI6OyYHyW7x6FhiPOG5J-2" target="JI6OyYHyW7x6FhiPOG5J-18" edge="1">
          <mxGeometry relative="1" as="geometry" />
        </mxCell>
        <mxCell id="JI6OyYHyW7x6FhiPOG5J-2" value="estou" style="text;html=1;align=center;verticalAlign=middle;resizable=0;points=[];autosize=1;strokeColor=none;fillColor=none;fontSize=24;fontStyle=1" parent="1" vertex="1">
          <mxGeometry x="-307" y="441" width="90" height="40" as="geometry" />
        </mxCell>
        <mxCell id="JI6OyYHyW7x6FhiPOG5J-27" style="edgeStyle=orthogonalEdgeStyle;rounded=0;orthogonalLoop=1;jettySize=auto;html=1;entryX=0.5;entryY=1;entryDx=0;entryDy=0;strokeWidth=4;fontSize=20;endArrow=block;endFill=1;" parent="1" source="JI6OyYHyW7x6FhiPOG5J-3" target="JI6OyYHyW7x6FhiPOG5J-21" edge="1">
          <mxGeometry relative="1" as="geometry" />
        </mxCell>
        <mxCell id="JI6OyYHyW7x6FhiPOG5J-3" value="sem" style="text;html=1;align=center;verticalAlign=middle;resizable=0;points=[];autosize=1;strokeColor=none;fillColor=none;fontSize=24;fontStyle=1" parent="1" vertex="1">
          <mxGeometry x="-111" y="441" width="70" height="40" as="geometry" />
        </mxCell>
        <mxCell id="JI6OyYHyW7x6FhiPOG5J-29" style="edgeStyle=orthogonalEdgeStyle;rounded=0;orthogonalLoop=1;jettySize=auto;html=1;strokeWidth=4;fontSize=20;endArrow=block;endFill=1;" parent="1" source="JI6OyYHyW7x6FhiPOG5J-4" target="JI6OyYHyW7x6FhiPOG5J-24" edge="1">
          <mxGeometry relative="1" as="geometry">
            <mxPoint x="110" y="409" as="targetPoint" />
          </mxGeometry>
        </mxCell>
        <mxCell id="JI6OyYHyW7x6FhiPOG5J-4" value="palavras" style="text;html=1;align=center;verticalAlign=middle;resizable=0;points=[];autosize=1;strokeColor=none;fillColor=none;fontSize=24;fontStyle=1" parent="1" vertex="1">
          <mxGeometry x="50" y="441" width="120" height="40" as="geometry" />
        </mxCell>
        <mxCell id="wlpBspeLEyTiO2ciBFhh-16" style="edgeStyle=orthogonalEdgeStyle;rounded=0;orthogonalLoop=1;jettySize=auto;html=1;entryX=0;entryY=0.5;entryDx=0;entryDy=0;strokeWidth=4;endArrow=block;endFill=1;endSize=7;curved=1;" edge="1" parent="1" source="JI6OyYHyW7x6FhiPOG5J-5" target="JI6OyYHyW7x6FhiPOG5J-104">
          <mxGeometry relative="1" as="geometry" />
        </mxCell>
        <mxCell id="JI6OyYHyW7x6FhiPOG5J-5" value="I" style="text;html=1;strokeColor=none;fillColor=none;align=center;verticalAlign=middle;whiteSpace=wrap;rounded=0;fontSize=24;fontStyle=1" parent="1" vertex="1">
          <mxGeometry x="381" y="45" width="60" height="30" as="geometry" />
        </mxCell>
        <mxCell id="wlpBspeLEyTiO2ciBFhh-17" style="edgeStyle=orthogonalEdgeStyle;curved=1;rounded=0;orthogonalLoop=1;jettySize=auto;html=1;entryX=0;entryY=0.575;entryDx=0;entryDy=0;entryPerimeter=0;strokeWidth=4;endArrow=block;endFill=1;endSize=7;" edge="1" parent="1" source="JI6OyYHyW7x6FhiPOG5J-6" target="JI6OyYHyW7x6FhiPOG5J-108">
          <mxGeometry relative="1" as="geometry" />
        </mxCell>
        <mxCell id="JI6OyYHyW7x6FhiPOG5J-6" value="am" style="text;html=1;align=center;verticalAlign=middle;resizable=0;points=[];autosize=1;strokeColor=none;fillColor=none;fontSize=24;fontStyle=1" parent="1" vertex="1">
          <mxGeometry x="564" y="45" width="60" height="40" as="geometry" />
        </mxCell>
        <mxCell id="JI6OyYHyW7x6FhiPOG5J-8" value="speechless" style="text;html=1;align=center;verticalAlign=middle;resizable=0;points=[];autosize=1;strokeColor=none;fillColor=none;fontSize=24;fontStyle=1" parent="1" vertex="1">
          <mxGeometry x="706" y="45" width="150" height="40" as="geometry" />
        </mxCell>
        <mxCell id="JI6OyYHyW7x6FhiPOG5J-87" style="edgeStyle=orthogonalEdgeStyle;rounded=0;orthogonalLoop=1;jettySize=auto;html=1;entryX=0;entryY=0.5;entryDx=0;entryDy=0;strokeWidth=4;fontSize=20;endArrow=block;endFill=1;" parent="1" source="JI6OyYHyW7x6FhiPOG5J-9" target="JI6OyYHyW7x6FhiPOG5J-16" edge="1">
          <mxGeometry relative="1" as="geometry" />
        </mxCell>
        <mxCell id="JI6OyYHyW7x6FhiPOG5J-9" value="&lt;b&gt;LSTM&lt;/b&gt;" style="rounded=1;whiteSpace=wrap;html=1;fontSize=24;strokeWidth=4;fillColor=#d5e8d4;strokeColor=#82b366;" parent="1" vertex="1">
          <mxGeometry x="-520" y="225" width="140" height="70" as="geometry" />
        </mxCell>
        <mxCell id="JI6OyYHyW7x6FhiPOG5J-15" style="edgeStyle=orthogonalEdgeStyle;rounded=0;orthogonalLoop=1;jettySize=auto;html=1;entryX=0.5;entryY=1;entryDx=0;entryDy=0;fontSize=20;strokeWidth=4;endArrow=block;endFill=1;" parent="1" source="JI6OyYHyW7x6FhiPOG5J-12" target="JI6OyYHyW7x6FhiPOG5J-9" edge="1">
          <mxGeometry relative="1" as="geometry" />
        </mxCell>
        <mxCell id="JI6OyYHyW7x6FhiPOG5J-12" value="Embedding" style="rounded=0;whiteSpace=wrap;html=1;strokeWidth=4;fontSize=20;fillColor=#f5f5f5;fontColor=#333333;strokeColor=#666666;" parent="1" vertex="1">
          <mxGeometry x="-520" y="348" width="140" height="40" as="geometry" />
        </mxCell>
        <mxCell id="JI6OyYHyW7x6FhiPOG5J-88" style="edgeStyle=orthogonalEdgeStyle;rounded=0;orthogonalLoop=1;jettySize=auto;html=1;entryX=0;entryY=0.5;entryDx=0;entryDy=0;strokeWidth=4;fontSize=20;endArrow=block;endFill=1;" parent="1" source="JI6OyYHyW7x6FhiPOG5J-16" target="JI6OyYHyW7x6FhiPOG5J-19" edge="1">
          <mxGeometry relative="1" as="geometry" />
        </mxCell>
        <mxCell id="JI6OyYHyW7x6FhiPOG5J-16" value="&lt;b&gt;LSTM&lt;/b&gt;" style="rounded=1;whiteSpace=wrap;html=1;fontSize=24;strokeWidth=4;fillColor=#d5e8d4;strokeColor=#82b366;" parent="1" vertex="1">
          <mxGeometry x="-332" y="225" width="140" height="70" as="geometry" />
        </mxCell>
        <mxCell id="JI6OyYHyW7x6FhiPOG5J-17" style="edgeStyle=orthogonalEdgeStyle;rounded=0;orthogonalLoop=1;jettySize=auto;html=1;entryX=0.5;entryY=1;entryDx=0;entryDy=0;fontSize=20;strokeWidth=4;endArrow=block;endFill=1;" parent="1" source="JI6OyYHyW7x6FhiPOG5J-18" target="JI6OyYHyW7x6FhiPOG5J-16" edge="1">
          <mxGeometry relative="1" as="geometry" />
        </mxCell>
        <mxCell id="JI6OyYHyW7x6FhiPOG5J-18" value="Embedding" style="rounded=0;whiteSpace=wrap;html=1;strokeWidth=4;fontSize=20;fillColor=#f5f5f5;fontColor=#333333;strokeColor=#666666;" parent="1" vertex="1">
          <mxGeometry x="-332" y="348" width="140" height="40" as="geometry" />
        </mxCell>
        <mxCell id="JI6OyYHyW7x6FhiPOG5J-89" value="" style="edgeStyle=orthogonalEdgeStyle;rounded=0;orthogonalLoop=1;jettySize=auto;html=1;strokeWidth=4;fontSize=20;endArrow=block;endFill=1;" parent="1" source="JI6OyYHyW7x6FhiPOG5J-19" target="JI6OyYHyW7x6FhiPOG5J-22" edge="1">
          <mxGeometry relative="1" as="geometry" />
        </mxCell>
        <mxCell id="JI6OyYHyW7x6FhiPOG5J-19" value="&lt;b&gt;LSTM&lt;/b&gt;" style="rounded=1;whiteSpace=wrap;html=1;fontSize=24;strokeWidth=4;fillColor=#d5e8d4;strokeColor=#82b366;" parent="1" vertex="1">
          <mxGeometry x="-146" y="225" width="140" height="70" as="geometry" />
        </mxCell>
        <mxCell id="JI6OyYHyW7x6FhiPOG5J-20" style="edgeStyle=orthogonalEdgeStyle;rounded=0;orthogonalLoop=1;jettySize=auto;html=1;entryX=0.5;entryY=1;entryDx=0;entryDy=0;fontSize=20;strokeWidth=4;endArrow=block;endFill=1;" parent="1" source="JI6OyYHyW7x6FhiPOG5J-21" target="JI6OyYHyW7x6FhiPOG5J-19" edge="1">
          <mxGeometry relative="1" as="geometry" />
        </mxCell>
        <mxCell id="JI6OyYHyW7x6FhiPOG5J-21" value="Embedding" style="rounded=0;whiteSpace=wrap;html=1;strokeWidth=4;fontSize=20;fillColor=#f5f5f5;fontColor=#333333;strokeColor=#666666;" parent="1" vertex="1">
          <mxGeometry x="-146" y="348" width="140" height="40" as="geometry" />
        </mxCell>
        <mxCell id="JI6OyYHyW7x6FhiPOG5J-31" style="edgeStyle=orthogonalEdgeStyle;rounded=0;orthogonalLoop=1;jettySize=auto;html=1;entryX=0;entryY=0.5;entryDx=0;entryDy=0;strokeWidth=4;fontSize=20;endArrow=block;endFill=1;" parent="1" source="JI6OyYHyW7x6FhiPOG5J-22" target="JI6OyYHyW7x6FhiPOG5J-30" edge="1">
          <mxGeometry relative="1" as="geometry" />
        </mxCell>
        <mxCell id="JI6OyYHyW7x6FhiPOG5J-22" value="&lt;b&gt;LSTM&lt;/b&gt;" style="rounded=1;whiteSpace=wrap;html=1;fontSize=24;strokeWidth=4;fillColor=#d5e8d4;strokeColor=#82b366;" parent="1" vertex="1">
          <mxGeometry x="40" y="225" width="140" height="70" as="geometry" />
        </mxCell>
        <mxCell id="JI6OyYHyW7x6FhiPOG5J-23" style="edgeStyle=orthogonalEdgeStyle;rounded=0;orthogonalLoop=1;jettySize=auto;html=1;entryX=0.5;entryY=1;entryDx=0;entryDy=0;fontSize=20;strokeWidth=4;endArrow=block;endFill=1;" parent="1" source="JI6OyYHyW7x6FhiPOG5J-24" target="JI6OyYHyW7x6FhiPOG5J-22" edge="1">
          <mxGeometry relative="1" as="geometry" />
        </mxCell>
        <mxCell id="JI6OyYHyW7x6FhiPOG5J-24" value="Embedding" style="rounded=0;whiteSpace=wrap;html=1;strokeWidth=4;fontSize=20;fillColor=#f5f5f5;fontColor=#333333;strokeColor=#666666;" parent="1" vertex="1">
          <mxGeometry x="40" y="348" width="140" height="40" as="geometry" />
        </mxCell>
        <mxCell id="JI6OyYHyW7x6FhiPOG5J-94" style="edgeStyle=orthogonalEdgeStyle;rounded=0;orthogonalLoop=1;jettySize=auto;html=1;entryX=0;entryY=0.5;entryDx=0;entryDy=0;strokeWidth=4;fontSize=20;endArrow=block;endFill=1;" parent="1" source="JI6OyYHyW7x6FhiPOG5J-30" target="JI6OyYHyW7x6FhiPOG5J-40" edge="1">
          <mxGeometry relative="1" as="geometry" />
        </mxCell>
        <mxCell id="JI6OyYHyW7x6FhiPOG5J-30" value="" style="rounded=0;whiteSpace=wrap;html=1;strokeWidth=4;fontSize=20;fillColor=#e1d5e7;strokeColor=#9673a6;fontStyle=3" parent="1" vertex="1">
          <mxGeometry x="237" y="166.5" width="40" height="187" as="geometry" />
        </mxCell>
        <mxCell id="JI6OyYHyW7x6FhiPOG5J-61" style="edgeStyle=orthogonalEdgeStyle;rounded=0;orthogonalLoop=1;jettySize=auto;html=1;exitX=0.5;exitY=0;exitDx=0;exitDy=0;entryX=0.5;entryY=1;entryDx=0;entryDy=0;strokeWidth=4;fontSize=20;endArrow=block;endFill=1;" parent="1" edge="1">
          <mxGeometry relative="1" as="geometry">
            <mxPoint x="407" y="225" as="sourcePoint" />
            <mxPoint x="407" y="170" as="targetPoint" />
          </mxGeometry>
        </mxCell>
        <mxCell id="JI6OyYHyW7x6FhiPOG5J-90" value="" style="edgeStyle=orthogonalEdgeStyle;rounded=0;orthogonalLoop=1;jettySize=auto;html=1;strokeWidth=4;fontSize=20;endArrow=block;endFill=1;" parent="1" source="JI6OyYHyW7x6FhiPOG5J-40" target="JI6OyYHyW7x6FhiPOG5J-43" edge="1">
          <mxGeometry relative="1" as="geometry" />
        </mxCell>
        <mxCell id="JI6OyYHyW7x6FhiPOG5J-40" value="&lt;b&gt;LSTM&lt;/b&gt;" style="rounded=1;whiteSpace=wrap;html=1;fontSize=24;strokeWidth=4;fillColor=#dae8fc;strokeColor=#6c8ebf;" parent="1" vertex="1">
          <mxGeometry x="336" y="225" width="140" height="70" as="geometry" />
        </mxCell>
        <mxCell id="JI6OyYHyW7x6FhiPOG5J-62" style="edgeStyle=orthogonalEdgeStyle;rounded=0;orthogonalLoop=1;jettySize=auto;html=1;exitX=0.5;exitY=0;exitDx=0;exitDy=0;entryX=0.5;entryY=1;entryDx=0;entryDy=0;strokeWidth=4;fontSize=20;endArrow=block;endFill=1;" parent="1" source="JI6OyYHyW7x6FhiPOG5J-43" target="JI6OyYHyW7x6FhiPOG5J-54" edge="1">
          <mxGeometry relative="1" as="geometry" />
        </mxCell>
        <mxCell id="JI6OyYHyW7x6FhiPOG5J-91" value="" style="edgeStyle=orthogonalEdgeStyle;rounded=0;orthogonalLoop=1;jettySize=auto;html=1;strokeWidth=4;fontSize=20;endArrow=block;endFill=1;" parent="1" source="JI6OyYHyW7x6FhiPOG5J-43" target="JI6OyYHyW7x6FhiPOG5J-46" edge="1">
          <mxGeometry relative="1" as="geometry" />
        </mxCell>
        <mxCell id="JI6OyYHyW7x6FhiPOG5J-43" value="&lt;b&gt;LSTM&lt;/b&gt;" style="rounded=1;whiteSpace=wrap;html=1;fontSize=24;strokeWidth=4;fillColor=#dae8fc;strokeColor=#6c8ebf;" parent="1" vertex="1">
          <mxGeometry x="526" y="225" width="140" height="70" as="geometry" />
        </mxCell>
        <mxCell id="JI6OyYHyW7x6FhiPOG5J-63" style="edgeStyle=orthogonalEdgeStyle;rounded=0;orthogonalLoop=1;jettySize=auto;html=1;entryX=0.5;entryY=1;entryDx=0;entryDy=0;strokeWidth=4;fontSize=20;endArrow=block;endFill=1;" parent="1" source="JI6OyYHyW7x6FhiPOG5J-46" target="JI6OyYHyW7x6FhiPOG5J-55" edge="1">
          <mxGeometry relative="1" as="geometry" />
        </mxCell>
        <mxCell id="JI6OyYHyW7x6FhiPOG5J-46" value="&lt;b&gt;LSTM&lt;/b&gt;" style="rounded=1;whiteSpace=wrap;html=1;fontSize=24;strokeWidth=4;fillColor=#dae8fc;strokeColor=#6c8ebf;" parent="1" vertex="1">
          <mxGeometry x="718" y="225" width="140" height="70" as="geometry" />
        </mxCell>
        <mxCell id="JI6OyYHyW7x6FhiPOG5J-65" style="edgeStyle=orthogonalEdgeStyle;rounded=0;orthogonalLoop=1;jettySize=auto;html=1;strokeWidth=4;fontSize=20;endArrow=block;endFill=1;" parent="1" edge="1">
          <mxGeometry relative="1" as="geometry">
            <mxPoint x="408" y="130" as="sourcePoint" />
            <mxPoint x="408" y="80" as="targetPoint" />
          </mxGeometry>
        </mxCell>
        <mxCell id="JI6OyYHyW7x6FhiPOG5J-53" value="&lt;i&gt;softmax&lt;/i&gt;" style="rounded=0;whiteSpace=wrap;html=1;strokeWidth=4;fontSize=20;fillColor=#f8cecc;strokeColor=#b85450;" parent="1" vertex="1">
          <mxGeometry x="336" y="130" width="140" height="40" as="geometry" />
        </mxCell>
        <mxCell id="JI6OyYHyW7x6FhiPOG5J-66" style="edgeStyle=orthogonalEdgeStyle;rounded=0;orthogonalLoop=1;jettySize=auto;html=1;strokeWidth=4;fontSize=20;endArrow=block;endFill=1;" parent="1" target="JI6OyYHyW7x6FhiPOG5J-6" edge="1">
          <mxGeometry relative="1" as="geometry">
            <mxPoint x="594" y="130" as="sourcePoint" />
          </mxGeometry>
        </mxCell>
        <mxCell id="JI6OyYHyW7x6FhiPOG5J-54" value="&lt;i&gt;softmax&lt;/i&gt;" style="rounded=0;whiteSpace=wrap;html=1;strokeWidth=4;fontSize=20;fillColor=#f8cecc;strokeColor=#b85450;" parent="1" vertex="1">
          <mxGeometry x="526" y="130" width="140" height="40" as="geometry" />
        </mxCell>
        <mxCell id="JI6OyYHyW7x6FhiPOG5J-69" style="edgeStyle=orthogonalEdgeStyle;rounded=0;orthogonalLoop=1;jettySize=auto;html=1;strokeWidth=4;fontSize=20;endArrow=block;endFill=1;" parent="1" edge="1">
          <mxGeometry relative="1" as="geometry">
            <mxPoint x="786" y="130" as="sourcePoint" />
            <mxPoint x="786" y="85" as="targetPoint" />
          </mxGeometry>
        </mxCell>
        <mxCell id="JI6OyYHyW7x6FhiPOG5J-55" value="&lt;i&gt;softmax&lt;/i&gt;" style="rounded=0;whiteSpace=wrap;html=1;strokeWidth=4;fontSize=20;fillColor=#f8cecc;strokeColor=#b85450;" parent="1" vertex="1">
          <mxGeometry x="718" y="130" width="140" height="40" as="geometry" />
        </mxCell>
        <mxCell id="JI6OyYHyW7x6FhiPOG5J-70" value="&lt;b&gt;&lt;i&gt;Context&lt;br&gt;Vector&lt;/i&gt;&lt;/b&gt;" style="text;html=1;strokeColor=none;fillColor=none;align=center;verticalAlign=middle;whiteSpace=wrap;rounded=0;strokeWidth=4;fontSize=20;" parent="1" vertex="1">
          <mxGeometry x="227" y="370" width="60" height="42" as="geometry" />
        </mxCell>
        <mxCell id="JI6OyYHyW7x6FhiPOG5J-71" value="" style="ellipse;whiteSpace=wrap;html=1;aspect=fixed;strokeWidth=4;fontSize=20;fillColor=#76608a;fontColor=#ffffff;strokeColor=#432D57;" parent="1" vertex="1">
          <mxGeometry x="247" y="183.5" width="20" height="20" as="geometry" />
        </mxCell>
        <mxCell id="JI6OyYHyW7x6FhiPOG5J-72" value="" style="ellipse;whiteSpace=wrap;html=1;aspect=fixed;strokeWidth=4;fontSize=20;fillColor=#76608a;fontColor=#ffffff;strokeColor=#432D57;" parent="1" vertex="1">
          <mxGeometry x="247" y="218.5" width="20" height="20" as="geometry" />
        </mxCell>
        <mxCell id="JI6OyYHyW7x6FhiPOG5J-73" value="" style="ellipse;whiteSpace=wrap;html=1;aspect=fixed;strokeWidth=4;fontSize=20;fillColor=#76608a;fontColor=#ffffff;strokeColor=#432D57;" parent="1" vertex="1">
          <mxGeometry x="247" y="253.5" width="20" height="20" as="geometry" />
        </mxCell>
        <mxCell id="JI6OyYHyW7x6FhiPOG5J-74" value="" style="ellipse;whiteSpace=wrap;html=1;aspect=fixed;strokeWidth=4;fontSize=20;fillColor=#76608a;fontColor=#ffffff;strokeColor=#432D57;" parent="1" vertex="1">
          <mxGeometry x="247" y="313.5" width="20" height="20" as="geometry" />
        </mxCell>
        <mxCell id="JI6OyYHyW7x6FhiPOG5J-86" value="..." style="text;html=1;strokeColor=none;fillColor=none;align=center;verticalAlign=middle;whiteSpace=wrap;rounded=0;strokeWidth=4;fontSize=20;" parent="1" vertex="1">
          <mxGeometry x="227" y="273.5" width="60" height="30" as="geometry" />
        </mxCell>
        <mxCell id="wlpBspeLEyTiO2ciBFhh-6" style="edgeStyle=orthogonalEdgeStyle;rounded=0;orthogonalLoop=1;jettySize=auto;html=1;entryX=0.5;entryY=1;entryDx=0;entryDy=0;strokeWidth=4;endSize=7;endArrow=block;endFill=1;" edge="1" parent="1" source="JI6OyYHyW7x6FhiPOG5J-95" target="wlpBspeLEyTiO2ciBFhh-1">
          <mxGeometry relative="1" as="geometry" />
        </mxCell>
        <mxCell id="JI6OyYHyW7x6FhiPOG5J-95" value="&lt;b&gt;&lt;font style=&quot;font-size: 24px;&quot;&gt;&amp;lt;BEG&amp;gt;&lt;/font&gt;&lt;/b&gt;" style="text;html=1;strokeColor=none;fillColor=none;align=center;verticalAlign=middle;whiteSpace=wrap;rounded=0;strokeWidth=4;fontSize=20;" parent="1" vertex="1">
          <mxGeometry x="376" y="442.5" width="60" height="30" as="geometry" />
        </mxCell>
        <mxCell id="wlpBspeLEyTiO2ciBFhh-7" style="edgeStyle=orthogonalEdgeStyle;rounded=0;orthogonalLoop=1;jettySize=auto;html=1;entryX=0.5;entryY=1;entryDx=0;entryDy=0;strokeWidth=4;endSize=7;endArrow=block;endFill=1;" edge="1" parent="1" source="JI6OyYHyW7x6FhiPOG5J-104" target="wlpBspeLEyTiO2ciBFhh-2">
          <mxGeometry relative="1" as="geometry" />
        </mxCell>
        <mxCell id="JI6OyYHyW7x6FhiPOG5J-104" value="I" style="text;html=1;strokeColor=none;fillColor=none;align=center;verticalAlign=middle;whiteSpace=wrap;rounded=0;fontSize=24;fontStyle=1" parent="1" vertex="1">
          <mxGeometry x="566" y="447.5" width="60" height="27" as="geometry" />
        </mxCell>
        <mxCell id="wlpBspeLEyTiO2ciBFhh-8" style="edgeStyle=orthogonalEdgeStyle;rounded=0;orthogonalLoop=1;jettySize=auto;html=1;strokeWidth=4;endSize=7;endArrow=block;endFill=1;" edge="1" parent="1" source="JI6OyYHyW7x6FhiPOG5J-108" target="wlpBspeLEyTiO2ciBFhh-3">
          <mxGeometry relative="1" as="geometry" />
        </mxCell>
        <mxCell id="JI6OyYHyW7x6FhiPOG5J-108" value="am" style="text;html=1;align=center;verticalAlign=middle;resizable=0;points=[];autosize=1;strokeColor=none;fillColor=none;fontSize=24;fontStyle=1" parent="1" vertex="1">
          <mxGeometry x="758" y="441" width="60" height="40" as="geometry" />
        </mxCell>
        <mxCell id="wlpBspeLEyTiO2ciBFhh-9" style="edgeStyle=orthogonalEdgeStyle;rounded=0;orthogonalLoop=1;jettySize=auto;html=1;entryX=0.5;entryY=1;entryDx=0;entryDy=0;strokeWidth=4;endArrow=block;endFill=1;endSize=7;" edge="1" parent="1" source="wlpBspeLEyTiO2ciBFhh-1" target="JI6OyYHyW7x6FhiPOG5J-40">
          <mxGeometry relative="1" as="geometry" />
        </mxCell>
        <mxCell id="wlpBspeLEyTiO2ciBFhh-1" value="Embedding" style="rounded=0;whiteSpace=wrap;html=1;strokeWidth=4;fontSize=20;fillColor=#fff2cc;strokeColor=#d6b656;" vertex="1" parent="1">
          <mxGeometry x="336" y="348" width="140" height="40" as="geometry" />
        </mxCell>
        <mxCell id="wlpBspeLEyTiO2ciBFhh-10" style="edgeStyle=orthogonalEdgeStyle;rounded=0;orthogonalLoop=1;jettySize=auto;html=1;entryX=0.5;entryY=1;entryDx=0;entryDy=0;strokeWidth=4;endArrow=block;endFill=1;endSize=7;" edge="1" parent="1" source="wlpBspeLEyTiO2ciBFhh-2" target="JI6OyYHyW7x6FhiPOG5J-43">
          <mxGeometry relative="1" as="geometry" />
        </mxCell>
        <mxCell id="wlpBspeLEyTiO2ciBFhh-2" value="Embedding" style="rounded=0;whiteSpace=wrap;html=1;strokeWidth=4;fontSize=20;fillColor=#fff2cc;strokeColor=#d6b656;" vertex="1" parent="1">
          <mxGeometry x="526" y="349" width="140" height="40" as="geometry" />
        </mxCell>
        <mxCell id="wlpBspeLEyTiO2ciBFhh-12" style="edgeStyle=orthogonalEdgeStyle;rounded=0;orthogonalLoop=1;jettySize=auto;html=1;strokeWidth=4;endArrow=block;endFill=1;endSize=7;entryX=0.5;entryY=1;entryDx=0;entryDy=0;" edge="1" parent="1" source="wlpBspeLEyTiO2ciBFhh-3" target="JI6OyYHyW7x6FhiPOG5J-46">
          <mxGeometry relative="1" as="geometry">
            <mxPoint x="788" y="320" as="targetPoint" />
          </mxGeometry>
        </mxCell>
        <mxCell id="wlpBspeLEyTiO2ciBFhh-3" value="Embedding" style="rounded=0;whiteSpace=wrap;html=1;strokeWidth=4;fontSize=20;fillColor=#fff2cc;strokeColor=#d6b656;" vertex="1" parent="1">
          <mxGeometry x="718" y="349" width="140" height="40" as="geometry" />
        </mxCell>
      </root>
    </mxGraphModel>
  </diagram>
</mxfile>
